# xmcd
#
# Track frame offsets:
#	150
#	12411
#	27021
#	43030
#	57632
#	75718
#	89889
#	100367
#	115792
#	131160
#	142001
#	154109
#	166133
#	180708
#	192274
#	215338
#
# Disc length: 3160 seconds
#
# Revision: 0
# Processed by: cddbd v1.4PL0 Copyright (c) Steve Scherf et al.
# Submitted via: dBpowerAMP V4.0
#
DISCID=e30c5610
DTITLE=Benny Berry - Give Me A Good Country Song
DYEAR=1900
DGENRE=Country
TTITLE0=I'll Get By
TTITLE1=Give Me A Good Country Song
TTITLE2=The Bad News Came Too Late
TTITLE3=I Can Play Your Memory By Heart
TTITLE4=Family Man
TTITLE5=Was It Just A Dream
TTITLE6=Country Music's King
TTITLE7=What's Wrong With Being Treated Right
TTITLE8=Pain, Pain Go Away
TTITLE9=Little Old You
TTITLE10=The Healing Has Happened
TTITLE11=Where The Soul Never Dies
TTITLE12=Mountain Men
TTITLE13=Jesus Take A Hold
TTITLE14=Hard Times Easier (w. Marsha Britton)
TTITLE15=DATA
EXTD=
EXTT0=
EXTT1=
EXTT2=
EXTT3=
EXTT4=
EXTT5=
EXTT6=
EXTT7=
EXTT8=
EXTT9=
EXTT10=
EXTT11=
EXTT12=
EXTT13=
EXTT14=
EXTT15=
PLAYORDER=
